<svg width="28" height="28" viewBox="0 0 28 28" fill="#E1E1E1" xmlns="http://www.w3.org/2000/svg">
<g id="calendar-335 1">
<path id="Vector" d="M26.659 6.57413C26.6946 5.98897 26.5251 5.4097 26.1794 4.93619C25.8338 4.46267 25.3338 4.12459 24.7656 3.98022C24.0243 3.89217 23.278 3.85418 22.5316 3.86652V5.45691C22.5158 5.79631 22.4194 6.12706 22.2504 6.42178C22.0813 6.71651 21.8445 6.96674 21.5596 7.15177C21.2746 7.3368 20.9497 7.4513 20.6117 7.48579C20.2737 7.52029 19.9323 7.47379 19.6158 7.35014C19.2112 7.17983 18.8669 6.89219 18.6272 6.52432C18.3876 6.15644 18.2637 5.72522 18.2715 5.28626V3.84763H9.71363V4.88896C9.73279 5.14096 9.73279 5.39435 9.71363 5.64649C9.58467 6.81563 8.53593 7.66137 7.36597 7.53955C6.25352 7.39397 5.43398 6.42672 5.47261 5.30546V3.88555H3.57952C3.46639 3.87043 3.35176 3.87043 3.23863 3.88555C2.68404 4.04091 2.19694 4.37643 1.85412 4.83922C1.51131 5.30202 1.33228 5.86575 1.34526 6.44154V23.879C1.31691 24.2264 1.35937 24.5759 1.47007 24.9064C1.58077 25.2369 1.7574 25.5415 1.98926 25.8017C2.22119 26.0619 2.50352 26.2723 2.81915 26.4202C3.13479 26.5681 3.47715 26.6503 3.82551 26.662H23.9893C24.351 26.6733 24.7111 26.6088 25.0465 26.4726C25.3818 26.3364 25.6849 26.1315 25.9363 25.8712C26.1878 25.6108 26.3819 25.3008 26.5063 24.9609C26.6308 24.621 26.6827 24.2589 26.6588 23.8977V6.57413H26.659ZM24.993 12.4811V22.9699C24.992 23.2197 24.9337 23.4659 24.8224 23.6895C24.7478 23.816 24.6388 23.9188 24.5081 23.9858C24.3774 24.0529 24.2303 24.0814 24.0841 24.0682H3.90125C3.76472 24.0845 3.62628 24.0689 3.49679 24.0227C3.36731 23.9764 3.25029 23.9008 3.15491 23.8018C3.05954 23.7028 2.9884 23.583 2.94708 23.4519C2.90577 23.3207 2.89539 23.1818 2.91676 23.046V10.9098H24.9738L24.993 12.4811Z"/>
<path id="Vector_2" d="M7.59317 6.51729C7.76393 6.51248 7.93203 6.4737 8.08764 6.40323C8.24326 6.33275 8.38328 6.23198 8.49953 6.1068C8.61588 5.98174 8.70616 5.83476 8.7651 5.67444C8.82404 5.51411 8.85047 5.34366 8.84283 5.17301V2.63592C8.87768 2.30692 8.79005 1.97662 8.59671 1.70815C8.42938 1.51604 8.20575 1.38154 7.95762 1.32379C7.70948 1.26603 7.44945 1.28795 7.21448 1.38642C6.95323 1.46807 6.72541 1.63204 6.56502 1.85383C6.40464 2.07563 6.3203 2.34335 6.32461 2.61703V5.19204C6.31953 5.5353 6.44977 5.86676 6.68715 6.11476C6.92453 6.36275 7.24999 6.50735 7.59314 6.51729H7.59317ZM20.3164 6.51729C20.4871 6.51245 20.6552 6.47366 20.8108 6.40318C20.9664 6.33271 21.1065 6.23196 21.2227 6.1068C21.3391 5.98173 21.4293 5.83475 21.4882 5.67442C21.5471 5.5141 21.5735 5.34365 21.5659 5.17301V2.63592C21.5742 2.29463 21.4523 1.96295 21.2251 1.70815C21.0578 1.51604 20.8342 1.38154 20.586 1.32379C20.3379 1.26603 20.0779 1.28795 19.8429 1.38642C19.6024 1.48299 19.3974 1.65089 19.2552 1.86752C19.113 2.08415 19.0406 2.33912 19.0477 2.59813V5.17301C19.0376 5.51956 19.1655 5.85594 19.4033 6.10822C19.6414 6.36022 19.9698 6.50735 20.3164 6.51729ZM19.9188 19.6948H23.2509V22.2698H19.9188V19.6948H19.9188ZM14.8256 19.6948H18.1579V22.2698H14.8256V19.6948ZM9.73265 22.2697H13.0838V19.6567H9.73265V22.2697ZM4.63974 19.6948H7.97201V22.2698H4.63974V19.6948ZM19.9188 16.173H23.2509V18.748H19.9188V16.173H19.9188ZM14.8256 16.192H18.1579V18.767H14.8256V16.192ZM9.73265 16.192H13.0648V18.767H9.73268L9.73265 16.192ZM7.99077 16.192H4.6585V18.767H7.99077V16.192ZM19.8999 12.6896H23.2321V15.2644H19.8999V12.6896ZM14.8256 12.6896H18.1579V15.2644H14.8256V12.6896ZM13.0838 12.6896H9.73265V15.2644H13.0838V12.6896Z"/>
</g>
</svg>
