<svg width="28" height="28" viewBox="0 0 28 28" fill="none" xmlns="http://www.w3.org/2000/svg">
<path d="M26.6589 6.57413C26.6946 5.98897 26.525 5.4097 26.1794 4.93619C25.8337 4.46267 25.3337 4.12459 24.7655 3.98022C24.0243 3.89217 23.2779 3.85418 22.5315 3.86652V5.45691C22.5157 5.79631 22.4193 6.12706 22.2503 6.42178C22.0813 6.71651 21.8445 6.96674 21.5595 7.15177C21.2745 7.3368 20.9496 7.4513 20.6116 7.48579C20.2736 7.52029 19.9322 7.47379 19.6158 7.35014C19.2111 7.17983 18.8668 6.89219 18.6272 6.52432C18.3876 6.15644 18.2637 5.72522 18.2715 5.28626V3.84763H9.71357V4.88896C9.73273 5.14096 9.73273 5.39435 9.71357 5.64649C9.58461 6.81563 8.53587 7.66137 7.36591 7.53955C6.25346 7.39397 5.43391 6.42672 5.47255 5.30546V3.88555H3.57946C3.46633 3.87043 3.35169 3.87043 3.23857 3.88555C2.68398 4.04091 2.19688 4.37643 1.85406 4.83922C1.51124 5.30202 1.33222 5.86575 1.3452 6.44154V23.879C1.31685 24.2264 1.35931 24.5759 1.47001 24.9064C1.58071 25.2369 1.75734 25.5415 1.9892 25.8017C2.22113 26.0619 2.50346 26.2723 2.81909 26.4202C3.13472 26.5681 3.47709 26.6503 3.82545 26.662H23.9892C24.351 26.6733 24.7111 26.6088 25.0464 26.4726C25.3817 26.3364 25.6849 26.1315 25.9363 25.8712C26.1877 25.6108 26.3819 25.3008 26.5063 24.9609C26.6307 24.621 26.6826 24.2589 26.6587 23.8977V6.57413H26.6589ZM24.9929 12.4811V22.9699C24.992 23.2197 24.9336 23.4659 24.8224 23.6895C24.7477 23.816 24.6387 23.9188 24.508 23.9858C24.3773 24.0529 24.2303 24.0814 24.084 24.0682H3.90119C3.76466 24.0845 3.62622 24.0689 3.49673 24.0227C3.36724 23.9764 3.25023 23.9008 3.15485 23.8018C3.05948 23.7028 2.98834 23.583 2.94702 23.4519C2.9057 23.3207 2.89533 23.1818 2.9167 23.046V10.9098H24.9737L24.9929 12.4811Z" fill="#E1E1E1"/>
<path d="M7.5932 6.51729C7.76396 6.51248 7.93206 6.4737 8.08767 6.40323C8.24329 6.33275 8.38331 6.23198 8.49956 6.1068C8.61591 5.98174 8.70619 5.83476 8.76513 5.67444C8.82407 5.51411 8.8505 5.34366 8.84286 5.17301V2.63592C8.87771 2.30692 8.79008 1.97662 8.59674 1.70815C8.42941 1.51604 8.20578 1.38154 7.95765 1.32379C7.70951 1.26603 7.44948 1.28795 7.21451 1.38642C6.95326 1.46807 6.72544 1.63204 6.56505 1.85383C6.40467 2.07563 6.32033 2.34335 6.32464 2.61703V5.19204C6.31956 5.5353 6.4498 5.86676 6.68718 6.11476C6.92456 6.36275 7.25002 6.50735 7.59317 6.51729H7.5932ZM20.3164 6.51729C20.4872 6.51245 20.6553 6.47366 20.8109 6.40318C20.9665 6.33271 21.1065 6.23196 21.2228 6.1068C21.3391 5.98173 21.4293 5.83475 21.4883 5.67442C21.5472 5.5141 21.5736 5.34365 21.5659 5.17301V2.63592C21.5742 2.29463 21.4524 1.96295 21.2251 1.70815C21.0578 1.51604 20.8342 1.38154 20.5861 1.32379C20.3379 1.26603 20.0779 1.28795 19.8429 1.38642C19.6025 1.48299 19.3974 1.65089 19.2552 1.86752C19.1131 2.08415 19.0406 2.33912 19.0477 2.59813V5.17301C19.0376 5.51956 19.1655 5.85594 19.4033 6.10822C19.6414 6.36022 19.9698 6.50735 20.3164 6.51729ZM19.9188 19.6948H23.2509V22.2698H19.9189V19.6948H19.9188ZM14.8256 19.6948H18.1579V22.2698H14.8256V19.6948ZM9.73268 22.2697H13.0839V19.6567H9.73268V22.2697ZM4.63977 19.6948H7.97204V22.2698H4.63977V19.6948ZM19.9188 16.173H23.251V18.748H19.9189V16.173H19.9188ZM14.8256 16.192H18.1579V18.767H14.8256V16.192ZM9.73268 16.192H13.0648V18.767H9.73271L9.73268 16.192ZM7.9908 16.192H4.65853V18.767H7.9908V16.192ZM19.8999 12.6896H23.2322V15.2644H19.8999V12.6896ZM14.8256 12.6896H18.1579V15.2644H14.8256V12.6896ZM13.0839 12.6896H9.73268V15.2644H13.0839V12.6896Z" fill="#E1E1E1"/>
</svg>
