<svg width="44" height="42" viewBox="0 0 44 42" fill="#E1E1E1" xmlns="http://www.w3.org/2000/svg">
<path d="M21.3033 7.25909C20.6865 7.85392 18.2017 10.2475 15.7847 12.5769C13.3655 14.9039 11.0491 17.138 10.6335 17.5378C10.2179 17.9375 9.62735 18.5062 9.32112 18.7988C9.0149 19.0938 8.71742 19.3817 8.66055 19.4412L8.55556 19.5483L9.27738 20.4286C9.67328 20.9116 10.0123 21.3066 10.0276 21.3066C10.0451 21.3042 11.3466 20.067 12.9215 18.5561C21.1852 10.6282 22.5195 9.35289 22.5348 9.35765C22.5435 9.36241 23.5628 10.3403 24.8008 11.5324C26.0367 12.7244 28.8299 15.413 31.0041 17.5092C33.1783 19.6054 34.9676 21.3209 34.9785 21.3209C34.9894 21.3209 35.0047 21.309 35.0113 21.2971C35.0222 21.2781 35.0354 21.2804 35.0572 21.2995C35.0988 21.3352 35.0354 21.4065 35.7987 20.4643C36.1334 20.0527 36.4396 19.6768 36.4812 19.6292L36.5556 19.5435L34.7226 17.7852C33.7142 16.8168 31.3453 14.5422 29.4555 12.7315C27.5678 10.9185 25.258 8.70334 24.3218 7.80633L22.6245 6.1765H22.526H22.4276L21.3033 7.25909Z"/>
<path d="M21.0387 12.7291C20.2425 13.4953 18.042 15.6153 16.15 17.4378L12.7115 20.7522L12.7159 27.5856L12.7224 34.4191L12.7705 34.5166C12.7968 34.5713 12.8602 34.6546 12.9105 34.6998C13.0921 34.8711 12.858 34.8592 16.325 34.8592H19.4485L19.4528 31.8303C19.4594 28.8181 19.4594 28.8038 19.5053 28.6968C19.5622 28.5588 19.6716 28.4398 19.7984 28.378C19.8969 28.328 19.9122 28.328 22.4757 28.3208C25.328 28.3137 25.2055 28.3089 25.3674 28.4636C25.4811 28.5731 25.5445 28.6944 25.5708 28.8514C25.5883 28.9466 25.5949 29.9316 25.5949 31.9255V34.8592L28.8409 34.8545L32.089 34.8473L32.1547 34.7783C32.1918 34.7403 32.2531 34.6284 32.2925 34.5285L32.3646 34.3477L32.369 27.5428L32.3734 20.7379L27.4738 16.0388C24.6959 13.3739 22.5545 11.3372 22.5304 11.3372C22.502 11.3349 21.9901 11.8131 21.0387 12.7291Z"/>
</svg>
