<svg width="27" height="27" viewBox="0 0 27 27" fill="#E1E1E1" xmlns="http://www.w3.org/2000/svg">
<g clip-path="url(#clip0_11_8)">
<path d="M1.51832 2.65283e-05H10.9402C11.1652 -7.29512e-05 11.3874 0.050653 11.5904 0.148483C11.7934 0.246313 11.9722 0.388766 12.1135 0.56539C12.2258 0.699588 12.3122 0.853725 12.3684 1.0199C12.4285 1.18383 12.459 1.35728 12.4585 1.53205V10.9969C12.4577 11.2038 12.4158 11.4085 12.3355 11.5989C12.2551 11.7893 12.1378 11.9615 11.9905 12.1055C11.7074 12.3785 11.3318 12.5324 10.9402 12.5356H1.51832C1.32634 12.5326 1.13678 12.4919 0.960212 12.4159C0.77456 12.3433 0.605213 12.2339 0.462179 12.0941C0.319144 11.9543 0.205325 11.7871 0.127448 11.6022C0.0428227 11.4119 -0.00062318 11.2055 6.75334e-06 10.9969V1.53205C0.00233641 1.16206 0.135589 0.805086 0.375739 0.525482L0.43946 0.463403C0.56996 0.329083 0.723263 0.21945 0.892097 0.139705C1.08879 0.0492622 1.30217 0.00166834 1.51832 2.65283e-05ZM16.0598 14.4689H25.4883C25.7163 14.4675 25.9417 14.5183 26.1475 14.6175C26.3499 14.7162 26.5284 14.8584 26.6704 15.0343C26.7799 15.1662 26.8662 15.3162 26.9253 15.4777C26.9854 15.6424 27.0159 15.8166 27.0154 15.9921V25.4569C27.0149 25.6621 26.973 25.865 26.8923 26.0533C26.8118 26.2433 26.6946 26.4152 26.5474 26.5588C26.4068 26.6955 26.2411 26.8032 26.0596 26.8759C25.8812 26.9503 25.6901 26.9887 25.4971 26.9889H16.0598C15.8678 26.9876 15.6778 26.95 15.4995 26.8781C15.32 26.8061 15.1559 26.7 15.0161 26.5655C14.8677 26.4219 14.749 26.2501 14.6668 26.06C14.5841 25.8699 14.5414 25.6645 14.5415 25.4569V16.0031C14.5409 15.8189 14.5745 15.6362 14.6404 15.4644C14.7037 15.2926 14.7967 15.1334 14.915 14.9944L14.9766 14.9323C15.1076 14.7982 15.2617 14.6892 15.4314 14.6108C15.6282 14.5182 15.8426 14.4698 16.0598 14.4689ZM25.4883 15.9965H16.0598V25.468C16.8684 25.468 25.4839 25.468 25.4927 25.468C25.4927 24.6698 25.4927 16.0009 25.4927 15.9965H25.4883ZM1.51832 14.4689H10.9402C11.1652 14.4688 11.3874 14.5195 11.5904 14.6174C11.7934 14.7152 11.9722 14.8576 12.1135 15.0343C12.2246 15.1652 12.311 15.3154 12.3684 15.4777C12.4285 15.6424 12.459 15.8166 12.4585 15.9921V25.4569C12.458 25.6621 12.4161 25.865 12.3355 26.0533C12.2567 26.2442 12.1391 26.4164 11.9905 26.5588C11.7074 26.8319 11.3318 26.9857 10.9402 26.9889H1.51832C1.32703 26.9877 1.13768 26.9501 0.960212 26.8781C0.779758 26.8067 0.61482 26.7005 0.474616 26.5655C0.32622 26.4224 0.208118 26.2504 0.127448 26.06C0.0445731 25.8738 0.00116548 25.6721 6.75334e-06 25.468V16.0031C0.000516709 15.819 0.0340144 15.6365 0.0988837 15.4644C0.163083 15.2925 0.256802 15.1334 0.375739 14.9944L0.43946 14.9323C0.569477 14.798 0.72292 14.689 0.892097 14.6108C1.08823 14.5184 1.30187 14.47 1.51832 14.4689ZM10.9402 15.9965H1.51832V25.468C2.32471 25.468 10.9424 25.468 10.949 25.468C10.949 24.6698 10.949 16.0009 10.949 15.9965H10.9402ZM16.0598 2.65283e-05H25.4883C25.7163 -0.00133135 25.9417 0.0494553 26.1475 0.148573C26.3499 0.24728 26.5284 0.389558 26.6704 0.56539C26.781 0.700701 26.8673 0.854532 26.9253 1.0199C26.9854 1.18383 27.0159 1.35728 27.0154 1.53205V10.9969C27.0151 11.2028 26.9733 11.4065 26.8923 11.5955C26.8114 11.7853 26.6942 11.957 26.5474 12.101C26.4014 12.2379 26.2305 12.3448 26.0442 12.4159C25.8655 12.4893 25.6746 12.5276 25.4817 12.5289H16.0598C15.8676 12.5281 15.6773 12.4897 15.4995 12.4159C15.3205 12.3439 15.1566 12.2386 15.0161 12.1055C14.8677 11.9619 14.749 11.7901 14.6668 11.6C14.5839 11.4091 14.5412 11.203 14.5415 10.9947V1.53205C14.5411 1.34856 14.5747 1.1666 14.6404 0.99551C14.7033 0.823513 14.7964 0.664312 14.915 0.525482L14.9766 0.463403C15.108 0.329193 15.262 0.219593 15.4314 0.139705C15.6288 0.0489575 15.8429 0.00135657 16.0598 2.65283e-05ZM25.4883 1.52762H16.0598V11.0036C16.8684 11.0036 25.4839 11.0036 25.4927 11.0036C25.4927 10.2054 25.4927 1.53427 25.4927 1.53205L25.4883 1.52762ZM10.9468 1.52762H1.51832V10.9991C2.32471 10.9991 10.9424 10.9991 10.949 10.9991C10.949 10.201 10.949 1.52983 10.949 1.52762H10.9468Z"/>
</g>
<defs>
<clipPath id="clip0_11_8">
<rect width="27" height="27" fill="white"/>
</clipPath>
</defs>
</svg>
